<svg width="379" height="85" fill="none" xmlns="http://www.w3.org/2000/svg"><g filter="url(#filter0_df_25_62)" shape-rendering="crispEdges"><path d="M5 20v38.5l18 18h246L285.5 60h72l17-17V15h-301l-13-13H23L5 20z" fill="#D9D9D9" fill-opacity=".15"/><path d="M5 34.5V20m0 0L23 2h37.5l13 13h301v28l-17 17h-72L269 76.5H23l-18-18V20z" stroke="#C82AB8"/></g><path d="M302 64l-12.96 13h-12.96l12.96-13H302z" fill="#C82AB8"/><path d="M275 77h1.08m0 0h12.96L302 64h-12.96l-12.96 13z" stroke="#C82AB8"/><path d="M319 64l-12.96 13h-12.96l12.96-13H319z" fill="#C82AB8"/><path d="M292 77h1.08m0 0h12.96L319 64h-12.96l-12.96 13z" stroke="#C82AB8"/><path d="M336 64l-12.96 13h-12.96l12.96-13H336z" fill="#C82AB8"/><path d="M309 77h1.08m0 0h12.96L336 64h-12.96l-12.96 13z" stroke="#C82AB8"/><path d="M353 64l-12.96 13h-12.96l12.96-13H353z" fill="#C82AB8"/><path d="M326 77h1.08m0 0h12.96L353 64h-12.96l-12.96 13z" stroke="#C82AB8"/><defs><filter id="filter0_df_25_62" x=".5" y=".5" width="378.5" height="84.5" filterUnits="userSpaceOnUse" color-interpolation-filters="sRGB"><feFlood flood-opacity="0" result="BackgroundImageFix"/><feColorMatrix in="SourceAlpha" values="0 0 0 0 0 0 0 0 0 0 0 0 0 0 0 0 0 0 127 0" result="hardAlpha"/><feOffset dy="4"/><feGaussianBlur stdDeviation="2"/><feComposite in2="hardAlpha" operator="out"/><feColorMatrix values="0 0 0 0 0 0 0 0 0 0 0 0 0 0 0 0 0 0 0.25 0"/><feBlend in2="BackgroundImageFix" result="effect1_dropShadow_25_62"/><feBlend in="SourceGraphic" in2="effect1_dropShadow_25_62" result="shape"/><feGaussianBlur stdDeviation=".5" result="effect2_foregroundBlur_25_62"/></filter></defs></svg>