<svg width="1131" height="481" fill="none" xmlns="http://www.w3.org/2000/svg"><g filter="url(#filter0_dddf_25_15)" shape-rendering="crispEdges"><path d="M48.506 13L13 42.236v145.032l73.797 60.764v169.681l55 45.287h618.228l55-45.287h205.385l55 45.287H1113V294.465l-37.59-30.955V13H619.392l-35.506 29.236H336.038L300.532 13H48.506z" fill="url(#paint0_linear_25_15)" fill-opacity=".5"/><path d="M48.506 13L13 42.236v145.032l73.797 60.764v169.681l55 45.287h618.228l55-45.287h205.385l55 45.287H1113V294.465l-37.59-30.955V13H619.392l-35.506 29.236H336.038L300.532 13H48.506z" stroke="#2AD2FB" stroke-width="5"/></g><defs><linearGradient id="paint0_linear_25_15" x1="563" y1="13" x2="563" y2="463" gradientUnits="userSpaceOnUse"><stop stop-color="#D9D9D9"/><stop offset=".339" stop-color="#D9D9D9" stop-opacity=".813"/><stop offset="1" stop-color="#D9D9D9" stop-opacity="0"/></linearGradient><filter id="filter0_dddf_25_15" x=".5" y=".5" width="1130" height="480" filterUnits="userSpaceOnUse" color-interpolation-filters="sRGB"><feFlood flood-opacity="0" result="BackgroundImageFix"/><feColorMatrix in="SourceAlpha" values="0 0 0 0 0 0 0 0 0 0 0 0 0 0 0 0 0 0 127 0" result="hardAlpha"/><feOffset dx="10" dy="10"/><feGaussianBlur stdDeviation="2.5"/><feComposite in2="hardAlpha" operator="out"/><feColorMatrix values="0 0 0 0 0.164706 0 0 0 0 0.823529 0 0 0 0 0.984314 0 0 0 0.37 0"/><feBlend in2="BackgroundImageFix" result="effect1_dropShadow_25_15"/><feColorMatrix in="SourceAlpha" values="0 0 0 0 0 0 0 0 0 0 0 0 0 0 0 0 0 0 127 0" result="hardAlpha"/><feOffset dx="-5" dy="-5"/><feGaussianBlur stdDeviation="2.5"/><feComposite in2="hardAlpha" operator="out"/><feColorMatrix values="0 0 0 0 0.164706 0 0 0 0 0.823529 0 0 0 0 0.984314 0 0 0 0.48 0"/><feBlend in2="effect1_dropShadow_25_15" result="effect2_dropShadow_25_15"/><feColorMatrix in="SourceAlpha" values="0 0 0 0 0 0 0 0 0 0 0 0 0 0 0 0 0 0 127 0" result="hardAlpha"/><feOffset/><feGaussianBlur stdDeviation="2.5"/><feComposite in2="hardAlpha" operator="out"/><feColorMatrix values="0 0 0 0 0.164706 0 0 0 0 0.823529 0 0 0 0 0.984314 0 0 0 0.4 0"/><feBlend in2="effect2_dropShadow_25_15" result="effect3_dropShadow_25_15"/><feBlend in="SourceGraphic" in2="effect3_dropShadow_25_15" result="shape"/><feGaussianBlur stdDeviation="1.5" result="effect4_foregroundBlur_25_15"/></filter></defs></svg>