<svg width="581" height="831" fill="none" xmlns="http://www.w3.org/2000/svg"><g filter="url(#filter0_dddf_34_18)" shape-rendering="crispEdges"><path d="M13 787.177L48.733 813h177.261l74.267-53.671H507.65l55.35-40v-449.62l-55.35-40V80.342l55.35-40V13H357.013l-37.835 27.342H13v331.645l35.733 25.823v180.253L13 603.886v183.291z" fill="url(#paint0_linear_34_18)" fill-opacity=".5"/><path d="M13 787.177L48.733 813h177.261l74.267-53.671H507.65l55.35-40v-449.62l-55.35-40V80.342l55.35-40V13H357.013l-37.835 27.342H13v331.645l35.733 25.823v180.253L13 603.886v183.291z" stroke="#2AD2FB" stroke-width="5"/></g><defs><linearGradient id="paint0_linear_34_18" x1="13" y1="413" x2="563" y2="413" gradientUnits="userSpaceOnUse"><stop stop-color="#D9D9D9"/><stop offset=".339" stop-color="#D9D9D9" stop-opacity=".813"/><stop offset="1" stop-color="#D9D9D9" stop-opacity="0"/></linearGradient><filter id="filter0_dddf_34_18" x=".5" y=".5" width="580" height="830" filterUnits="userSpaceOnUse" color-interpolation-filters="sRGB"><feFlood flood-opacity="0" result="BackgroundImageFix"/><feColorMatrix in="SourceAlpha" values="0 0 0 0 0 0 0 0 0 0 0 0 0 0 0 0 0 0 127 0" result="hardAlpha"/><feOffset dx="10" dy="10"/><feGaussianBlur stdDeviation="2.5"/><feComposite in2="hardAlpha" operator="out"/><feColorMatrix values="0 0 0 0 0.164706 0 0 0 0 0.823529 0 0 0 0 0.984314 0 0 0 0.37 0"/><feBlend in2="BackgroundImageFix" result="effect1_dropShadow_34_18"/><feColorMatrix in="SourceAlpha" values="0 0 0 0 0 0 0 0 0 0 0 0 0 0 0 0 0 0 127 0" result="hardAlpha"/><feOffset dx="-5" dy="-5"/><feGaussianBlur stdDeviation="2.5"/><feComposite in2="hardAlpha" operator="out"/><feColorMatrix values="0 0 0 0 0.164706 0 0 0 0 0.823529 0 0 0 0 0.984314 0 0 0 0.48 0"/><feBlend in2="effect1_dropShadow_34_18" result="effect2_dropShadow_34_18"/><feColorMatrix in="SourceAlpha" values="0 0 0 0 0 0 0 0 0 0 0 0 0 0 0 0 0 0 127 0" result="hardAlpha"/><feOffset/><feGaussianBlur stdDeviation="2.5"/><feComposite in2="hardAlpha" operator="out"/><feColorMatrix values="0 0 0 0 0.164706 0 0 0 0 0.823529 0 0 0 0 0.984314 0 0 0 0.4 0"/><feBlend in2="effect2_dropShadow_34_18" result="effect3_dropShadow_34_18"/><feBlend in="SourceGraphic" in2="effect3_dropShadow_34_18" result="shape"/><feGaussianBlur stdDeviation="1.5" result="effect4_foregroundBlur_34_18"/></filter></defs></svg>